<?xml version="1.0" encoding="UTF-8"?>
<svg version="1.1" xmlns="http://www.w3.org/2000/svg" width="512" height="512">
<path d="M0 0 C6.17767219 1.63637633 10.36862197 10.86244591 13.5378418 15.97729492 C14.04629639 16.79294922 14.55475098 17.60860352 15.07861328 18.44897461 C16.74407148 21.13853443 18.39371739 23.83714412 20.0378418 26.53979492 C20.61163574 27.48161621 21.18542969 28.4234375 21.77661133 29.39379883 C55.1051665 84.44353685 55.1051665 84.44353685 49.3347168 108.46704102 C48.60189087 111.16890452 47.83979737 113.85771951 47.0378418 116.53979492 C48.1710083 116.25257568 49.3041748 115.96535645 50.47167969 115.66943359 C54.74807978 114.58657497 59.02571722 113.50867278 63.30371094 112.43212891 C65.14160764 111.96892439 66.97918343 111.50444438 68.81640625 111.03857422 C106.50121787 101.48627135 106.50121787 101.48627135 111.9753418 104.66479492 C114.81206454 109.67077623 113.8927044 114.52924485 112.7019043 119.91088867 C112.54757431 120.61737549 112.39324432 121.3238623 112.23423767 122.05175781 C111.72379294 124.36349541 111.19497381 126.67045913 110.6628418 128.97729492 C110.48244354 129.77168976 110.30204529 130.56608459 110.11618042 131.384552 C104.70451188 155.15739817 98.47444697 178.40827047 88.0378418 200.53979492 C89.11163086 200.31163086 90.18541992 200.0834668 91.29174805 199.84838867 C92.72782352 199.55741913 94.16402856 199.26708852 95.6003418 198.97729492 C96.30481445 198.82583008 97.00928711 198.67436523 97.73510742 198.51831055 C102.39988086 197.59395452 106.37067444 197.20714268 111.0378418 198.53979492 C113.20877365 201.27437518 114.04576582 202.84945205 114.00537109 206.36865234 C113.81370361 207.38805908 113.62203613 208.40746582 113.42456055 209.45776367 C113.2136377 210.60422363 113.00271484 211.75068359 112.78540039 212.93188477 C112.53870605 214.12249512 112.29201172 215.31310547 112.0378418 216.53979492 C111.8001709 217.68786621 111.5625 218.8359375 111.31762695 220.01879883 C110.53316868 223.63980181 109.70188263 227.24649255 108.8503418 230.85229492 C108.69855469 231.49743042 108.54676758 232.14256592 108.39038086 232.80725098 C103.4220665 253.8489919 98.02262802 275.23186493 88.0378418 294.53979492 C88.58722412 294.43844238 89.13660645 294.33708984 89.70263672 294.23266602 C92.20783126 293.7789049 94.71629013 293.34669586 97.2253418 292.91479492 C98.52181641 292.6750293 98.52181641 292.6750293 99.84448242 292.43041992 C108.23681819 291.01562002 108.23681819 291.01562002 112.0378418 293.53979492 C116.84364825 301.37002526 111.49013966 314.27901254 109.5378418 322.78979492 C109.36310333 323.5545816 109.18836487 324.31936829 109.0083313 325.10733032 C103.37023424 349.61505251 97.17755988 375.39315422 83.0378418 396.53979492 C82.4603418 397.42666992 81.8828418 398.31354492 81.2878418 399.22729492 C72.09950213 408.67086625 59.37421557 414.5457352 46.23486328 414.83251953 C31.70533827 414.94158185 18.2575899 412.56329058 7.39770508 401.93457031 C6.9489502 401.47429443 6.50019531 401.01401855 6.0378418 400.53979492 C6.03641678 401.54568665 6.03499176 402.55157837 6.03352356 403.58795166 C6.01685943 413.06412423 5.97410394 422.53986705 5.90575123 432.01581192 C5.87144931 436.8876385 5.84636629 441.75915044 5.84228516 446.63110352 C5.83800904 451.33222736 5.80960381 456.03264104 5.76441002 460.7335434 C5.75141294 462.52765518 5.74713515 464.32185186 5.751688 466.11600494 C5.75657853 468.628167 5.73057361 471.138241 5.69726562 473.65014648 C5.70589127 474.3931752 5.71451691 475.13620392 5.72340393 475.90174866 C5.63952449 479.67143317 5.31227402 481.24768556 2.69194031 484.0368042 C0.0378418 485.53979492 0.0378418 485.53979492 -3.0871582 485.47729492 C-6.15394812 484.47725473 -7.14333277 484.14169228 -8.9621582 481.53979492 C-9.27169718 478.87249554 -9.39966276 476.43341006 -9.39453125 473.76367188 C-9.40981873 472.57795593 -9.40981873 472.57795593 -9.42541504 471.36828613 C-9.45561553 468.75481138 -9.46482158 466.14170271 -9.47387695 463.52807617 C-9.49071844 461.71631139 -9.50886796 459.90455833 -9.52827454 458.09281921 C-9.57583837 453.32367618 -9.60560637 448.55458065 -9.63171387 443.78527832 C-9.66148725 438.91884982 -9.7080286 434.05258517 -9.75317383 429.1862793 C-9.83927952 419.63753676 -9.90659243 410.08876057 -9.9621582 400.53979492 C-10.88822121 401.26805733 -10.88822121 401.26805733 -11.83299255 402.0110321 C-13.04826378 402.96245842 -13.04826378 402.96245842 -14.28808594 403.93310547 C-15.09108627 404.56298874 -15.89408661 405.19287201 -16.72142029 405.84184265 C-19.06264994 407.61594402 -21.38192768 409.06946004 -24.0246582 410.35229492 C-24.77875977 410.72999023 -25.53286133 411.10768555 -26.30981445 411.49682617 C-38.51187926 416.29498715 -54.14805043 416.69576334 -66.35668945 411.80541992 C-70.77417802 409.65959339 -74.91447289 407.32302008 -78.9621582 404.53979492 C-79.58735352 404.1350293 -80.21254883 403.73026367 -80.85668945 403.31323242 C-100.08929142 389.16012127 -105.77433838 353.81741092 -111.2121582 332.10229492 C-111.37882996 331.43868958 -111.54550171 330.77508423 -111.71722412 330.09136963 C-113.51356619 322.90221677 -115.20951075 315.68862328 -116.7590332 308.44213867 C-117.01523438 307.25998779 -117.27143555 306.07783691 -117.53540039 304.85986328 C-118.05806543 300.79366082 -118.09723378 297.18565451 -115.7121582 293.72729492 C-111.45926062 290.84140014 -107.25402168 291.63721926 -102.47973633 292.51831055 C-101.71081055 292.66977539 -100.94188477 292.82124023 -100.1496582 292.97729492 C-98.96726563 293.19869141 -98.96726563 293.19869141 -97.76098633 293.42456055 C-95.82646774 293.78801555 -93.8940804 294.16278254 -91.9621582 294.53979492 C-92.4468457 293.54206055 -92.9315332 292.54432617 -93.4309082 291.51635742 C-104.75694784 267.523412 -110.96091811 241.28957692 -116.3996582 215.41479492 C-116.5759375 214.60349121 -116.7522168 213.7921875 -116.93383789 212.95629883 C-117.81345054 208.57776188 -118.3650266 204.89709123 -116.9621582 200.53979492 C-114.81974536 198.21964828 -113.6733517 197.58183032 -110.5168457 197.39526367 C-109.63254883 197.50483398 -108.74825195 197.6144043 -107.8371582 197.72729492 C-106.87938477 197.84331055 -105.92161133 197.95932617 -104.93481445 198.07885742 C-100.57741137 198.75451256 -96.26522518 199.57837215 -91.9621582 200.53979492 C-92.38625977 199.62842773 -92.81036133 198.71706055 -93.24731445 197.77807617 C-101.01525032 180.773684 -106.18646152 163.26294608 -110.7121582 145.16479492 C-110.90283875 144.40356323 -111.09351929 143.64233154 -111.28997803 142.85803223 C-112.55971655 137.76232224 -113.78511634 132.65771456 -114.9621582 127.53979492 C-115.20518677 126.4856842 -115.20518677 126.4856842 -115.453125 125.41027832 C-115.91341034 123.38079545 -116.35540729 121.34829545 -116.7902832 119.31323242 C-117.04197266 118.14969238 -117.29366211 116.98615234 -117.55297852 115.78735352 C-117.98036639 112.39528099 -117.79058843 109.84692195 -116.9621582 106.53979492 C-115.3371582 104.66479492 -115.3371582 104.66479492 -112.9621582 103.53979492 C-107.79041994 103.2632806 -103.08669781 103.95920603 -98.0715332 105.11401367 C-97.33269897 105.27827347 -96.59386475 105.44253326 -95.8326416 105.61177063 C-93.45731799 106.14249201 -91.08472585 106.68439794 -88.7121582 107.22729492 C-87.08558622 107.59407815 -85.45895846 107.96061406 -83.83227539 108.3269043 C-72.81055236 110.82300772 -61.84291578 113.48141982 -50.9621582 116.53979492 C-51.1787207 115.93135742 -51.3952832 115.32291992 -51.6184082 114.69604492 C-59.12136507 91.07562515 -48.36612686 70.57791355 -37.70092773 49.80834961 C-10.97306176 -0.43493453 -10.97306176 -0.43493453 0 0 Z M-2.9621582 21.53979492 C-4.28666908 23.18136922 -4.28666908 23.18136922 -5.5793457 25.36010742 C-6.09795166 26.19445312 -6.61655762 27.02879883 -7.15087891 27.88842773 C-7.70735107 28.80462891 -8.26382324 29.72083008 -8.8371582 30.66479492 C-9.41361084 31.60677734 -9.99006348 32.54875977 -10.58398438 33.51928711 C-19.97972816 49.0193783 -28.68041037 64.93229987 -35.9621582 81.53979492 C-36.53256836 82.80436523 -36.53256836 82.80436523 -37.11450195 84.09448242 C-40.7718611 93.29686996 -40.07739239 103.9856542 -36.2824707 113.00854492 C-30.68268444 123.74422983 -22.37689301 129.9251289 -10.9621582 133.53979492 C-2.05777463 135.98850041 7.13732266 134.45005097 15.3425293 130.40307617 C23.97466487 125.24008188 31.77978886 116.97743717 34.55737305 107.12963867 C39.25278442 81.82022615 20.1098611 55.16111577 7.36108398 34.66918945 C6.15994536 32.73628703 4.97511894 30.79455929 3.7956543 28.84838867 C1.53944083 25.10966881 1.53944083 25.10966881 -0.9621582 21.53979492 C-1.6221582 21.53979492 -2.2821582 21.53979492 -2.9621582 21.53979492 Z M-100.9621582 120.53979492 C-93.29220333 167.25056096 -93.29220333 167.25056096 -68.7746582 204.85229492 C-58.96446854 210.74168972 -49.69693762 212.99342835 -38.33325195 211.10229492 C-27.94594403 208.50140405 -19.44592778 201.63662227 -13.7824707 192.67260742 C-9.10784942 184.17639794 -7.97803873 174.99657217 -9.9621582 165.53979492 C-13.36482696 154.67847625 -18.08777513 147.55859637 -28.05200195 141.99682617 C-48.63759389 131.69021437 -77.87365483 120.53979492 -100.9621582 120.53979492 Z M85.6862793 122.19213867 C84.96283829 122.36743103 84.23939728 122.54272339 83.49403381 122.72332764 C81.13166006 123.30028791 78.77194856 123.88712419 76.4128418 124.47729492 C75.60871857 124.67787506 74.80459534 124.8784552 73.97610474 125.08511353 C63.3406275 127.75545816 52.84871788 130.6554107 42.4753418 134.22729492 C41.46842285 134.57074951 40.46150391 134.9142041 39.42407227 135.26806641 C25.43056258 140.27182773 15.01051089 146.1374995 8.0378418 159.53979492 C4.26927714 168.15365701 4.35103802 177.63353796 7.0378418 186.53979492 C11.54943081 197.69683261 18.96801454 204.46692067 29.6784668 209.62963867 C38.87038753 213.17552862 48.6581233 212.35099431 57.6315918 208.67651367 C71.23140258 202.25192773 77.10169155 190.05370228 82.0378418 176.53979492 C88.39298835 158.20483188 92.87023203 139.46374267 97.0378418 120.53979492 C93.01151919 120.53979492 89.55695195 121.2402989 85.6862793 122.19213867 Z M-2.9621582 202.53979492 C-4.68523914 204.36159404 -6.32826387 206.20334599 -7.9621582 208.10229492 C-12.74700023 213.51994251 -17.78088954 217.73181162 -23.9621582 221.53979492 C-20.96499267 224.05354666 -17.91217718 226.18681319 -14.5871582 228.22729492 C-9.57100477 231.49577681 -6.33778668 235.65544503 -2.9621582 240.53979492 C0.59499614 239.35407681 0.9017392 238.51478927 2.9128418 235.47729492 C7.44502185 229.36913001 13.49644645 226.14985822 20.0378418 222.53979492 C17.57355087 219.98807903 15.12020209 217.77315342 12.2253418 215.72729492 C7.11966205 211.96722423 2.56522212 207.83086541 -0.9621582 202.53979492 C-1.6221582 202.53979492 -2.2821582 202.53979492 -2.9621582 202.53979492 Z M-100.9621582 214.53979492 C-92.9788434 262.28743506 -92.9788434 262.28743506 -66.9621582 300.53979492 C-57.36871116 305.72373336 -46.67610214 307.48085252 -35.96606445 304.78588867 C-25.1408185 300.58430919 -16.82332912 293.75359903 -11.96606445 283.14135742 C-8.28034206 273.59003014 -8.14911114 264.18847415 -11.4621582 254.47729492 C-16.98432107 242.20798235 -26.95766856 236.28163646 -38.9621582 231.53979492 C-58.62637461 224.08753748 -79.98419833 216.9649926 -100.9621582 214.53979492 Z M16.0378418 242.53979492 C8.95240435 249.94729771 5.0378418 258.75966322 5.0378418 269.08276367 C5.91591631 280.8818899 10.25614114 289.29637782 18.9128418 297.28979492 C28.43034667 305.27574729 37.91887464 306.39067526 50.0378418 305.53979492 C59.97599032 303.46986687 67.87345551 298.08791526 73.6628418 289.78979492 C86.67477672 267.6545493 92.1270575 239.42952737 97.0378418 214.53979492 C74.01152946 214.53979492 32.7665453 226.66242493 16.0378418 242.53979492 Z M-2.9621582 296.53979492 C-4.17836893 298.02130652 -5.33476252 299.55212586 -6.4621582 301.10229492 C-10.64454787 306.49055606 -15.27111634 309.89094665 -20.9621582 313.53979492 C-22.30420471 314.52807067 -23.640555 315.52434292 -24.9621582 316.53979492 C-24.22610352 316.91491211 -23.49004883 317.2900293 -22.73168945 317.67651367 C-17.41796217 320.46323723 -12.90606042 322.91979518 -8.9621582 327.53979492 C-8.4259082 328.1559668 -7.8896582 328.77213867 -7.3371582 329.40698242 C-5.8635606 331.10571299 -4.40714855 332.81673084 -2.9621582 334.53979492 C0.48060242 333.39220805 0.68284786 332.84432803 2.5378418 329.91479492 C5.78548731 325.36972319 9.68519851 322.89338431 14.4519043 320.08276367 C16.77953644 318.69391972 18.90465819 317.20728351 21.0378418 315.53979492 C20.39717773 315.1762793 19.75651367 314.81276367 19.09643555 314.43823242 C12.07328714 310.35622366 5.89678383 306.41394228 1.2253418 299.66479492 C0.5034668 298.63354492 -0.2184082 297.60229492 -0.9621582 296.53979492 C-1.6221582 296.53979492 -2.2821582 296.53979492 -2.9621582 296.53979492 Z M-99.9621582 309.53979492 C-97.93728982 333.71005924 -90.05049824 373.81739297 -71.4621582 391.28979492 C-62.12612649 398.5476004 -52.74568319 401.37887265 -40.95043945 400.07495117 C-30.55904304 398.21400828 -22.36994828 393.14937469 -16.1496582 384.66479492 C-10.626911 376.2234205 -7.94141351 367.66678017 -9.3996582 357.48510742 C-11.87824689 346.41595565 -16.42976635 337.97159695 -25.9621582 331.53979492 C-43.90070902 321.12754581 -66.01784569 316.31369322 -86.0246582 311.47729492 C-86.86810791 311.27338135 -87.71155762 311.06946777 -88.58056641 310.859375 C-92.44394751 309.96955135 -95.96793218 309.29065809 -99.9621582 309.53979492 Z M85.2331543 310.82495117 C83.53908447 311.24442017 83.53908447 311.24442017 81.81079102 311.67236328 C80.60696777 311.97924072 79.40314453 312.28611816 78.1628418 312.60229492 C76.91647949 312.91884033 75.67011719 313.23538574 74.38598633 313.56152344 C37.44472175 321.53006688 37.44472175 321.53006688 9.6003418 344.66479492 C5.37191892 353.15697569 3.84150533 362.90196438 6.20581055 372.16088867 C10.37936551 384.09372891 16.89917692 391.63265191 28.0456543 397.61791992 C37.54822144 401.67340883 47.54487938 401.19973224 57.0378418 397.53979492 C68.43873041 392.80176329 74.28589407 384.28723986 79.03369141 373.29711914 C85.31144061 357.94193842 89.62344133 341.82074885 93.5378418 325.72729492 C93.7932373 324.67791748 94.04863281 323.62854004 94.31176758 322.54736328 C95.3548241 318.09696435 96.17329843 314.13146707 96.0378418 309.53979492 C92.20780013 309.39585116 88.94750149 309.9015988 85.2331543 310.82495117 Z " fill="#000000" transform="translate(257.962158203125,13.460205078125)"/>
</svg>
